<svg width="1076.06371" height="755.2279" xmlns="http://www.w3.org/2000/svg">
 <title>web_developer</title>

 <g>
  <title>background</title>
  <rect fill="none" id="canvas_background" height="402" width="582" y="-1" x="-1"/>
 </g>
 <g>
  <title>Layer 1</title>
  <path id="svg_1" fill="#3f3d56" d="m864.14579,702.423323c-6.98452,26.59789 -31.459,43.21966 -31.459,43.21966s-13.15033,-26.50193 -6.16581,-53.09982s31.459,-43.21966 31.459,-43.21966s13.15033,26.50193 6.16581,53.09982z"/>
  <path id="svg_2" fill="#1165eb" d="m853.55186,696.796613c-19.56251,19.32716 -21.75117,48.83128 -21.75117,48.83128s29.52845,-1.83141 49.091,-21.15858s21.75116,-48.83129 21.75116,-48.83129s-29.52851,1.83142 -49.09099,21.15859z"/>
  <path id="svg_3" fill="#2f2e41" d="m144.73407,601.808333l36.8414,0l90.78774,-35.52564s64.47245,-26.31528 59.20939,23.68376s-14.47341,117.103 -14.47341,117.103s-28.94681,-13.15764 -44.736,-9.21035s-5.26306,-80.26162 -5.26306,-80.26162s-128.9449,61.84092 -140.78678,53.94634s-14.4734,-63.15669 -14.4734,-63.15669l32.89412,-6.5788z"/>
  <path id="svg_4" opacity="0.1" d="m144.73407,601.808333l36.8414,0l90.78774,-35.52564s64.47245,-26.31528 59.20939,23.68376s-14.47341,117.103 -14.47341,117.103s-28.94681,-13.15764 -44.736,-9.21035s-5.26306,-80.26162 -5.26306,-80.26162s-128.9449,61.84092 -140.78678,53.94634s-14.4734,-63.15669 -14.4734,-63.15669l32.89412,-6.5788z"/>
  <path id="svg_5" fill="#d1a5ab" d="m202.77793,486.434313l44.58576,64.05921l103.94537,86.84043s96.0508,22.368 82.89315,38.15717s-93.41926,-15.78917 -93.41926,-15.78917s-119.73455,-86.84044 -123.68184,-93.41927s-47.36751,-68.41973 -47.36751,-68.41973l33.04433,-11.42864z"/>
  <path id="svg_6" opacity="0.1" d="m199.77793,486.434313l44.58576,64.05921l103.94537,86.84043s96.0508,22.368 82.89315,38.15717s-93.41926,-15.78917 -93.41926,-15.78917s-119.73455,-86.84044 -123.68184,-93.41927s-47.36751,-68.41973 -47.36751,-68.41973l33.04433,-11.42864z"/>
  <path id="svg_7" fill="#d0cde1" d="m176.31242,434.706273l28.94681,56.57786s-6.57882,27.63105 -17.10494,30.26258s-55.26209,-34.20987 -55.26209,-34.20987l43.42022,-52.63057z"/>
  <path id="svg_8" opacity="0.1" d="m176.31242,434.706273l28.94681,56.57786s-6.57882,27.63105 -17.10494,30.26258s-55.26209,-34.20987 -55.26209,-34.20987l43.42022,-52.63057z"/>
  <path id="svg_9" fill="#2f2e41" d="m529.45116,572.514393l8.5507,35.27156a2.20311,2.20311 0 0 1 -0.04279,1.19048l-38.78765,121.21126a2.20306,2.20306 0 0 1 -4.28722,-0.42269l-5.36581,-47.21916a2.203,2.203 0 0 1 0.09431,-0.93128l35.60276,-109.26361a2.20306,2.20306 0 0 1 4.2357,0.16344z"/>
  <polygon id="svg_10" fill="#f2f2f2" points="526.306 575.493 534.2 605.756 499.99 716.28 492.096 682.07 526.306 575.493"/>
  <path id="svg_11" fill="#2f2e41" d="m353.94059,739.963583c1.31577,3.94729 136.83949,-1.31577 138.15525,-2.63153a28.56086,28.56086 0 0 0 2.89462,-5.26306c1.2369,-2.63153 2.36844,-5.26306 2.36844,-5.26306l-5.26304,-42.60445l-134.208,-4.76306s-3.35527,36.10458 -4.03949,52.63057c-0.17087,4.17096 -0.17087,7.10508 0.09222,7.89459z"/>
  <polygon id="svg_12" opacity="0.1" points="474.991 689.965 477.622 726.806 418.413 726.806 418.413 689.965 474.991 689.965"/>
  <polygon id="svg_13" opacity="0.1" points="398.677 701.806 399.03 701.736 397.361 717.596 364.467 717.596 364.467 701.806 398.677 701.806"/>
  <path id="svg_14" opacity="0.1" d="m353.94059,739.963583c1.31577,3.94729 136.83949,-1.31577 138.15525,-2.63153a28.56086,28.56086 0 0 0 2.89462,-5.26306l-141.14206,0c-0.1709,4.17096 -0.1709,7.10508 0.09219,7.89459z"/>
  <circle id="svg_15" fill="#d1a5ab" r="59.20939" cy="357.07618" cx="196.04888"/>
  <path id="svg_16" fill="#d1a5ab" d="m192.10159,409.706753s-19.73647,34.20987 -23.68376,52.63057s-59.20939,-36.8414 -59.20939,-36.8414l-7.2367,-19.07858s51.97268,-24.34164 48.02539,-44.07811s42.10446,47.36752 42.10446,47.36752z"/>
  <path id="svg_17" fill="#d1a5ab" d="m202.6277,512.336363l53.94634,71.05127l128.9449,96.05079s93.41926,19.73647 72.367,34.20987s-81.57738,-13.15764 -81.57738,-13.15764s-130.26064,-69.73551 -157.8917,-98.68232s-78.94585,-77.63009 -78.94585,-77.63009l63.15669,-11.84188z"/>
  <path id="svg_18" fill="#2f2e41" d="m130.26067,622.860563l15.78919,24.99952l94.2313,-29.64581c20.67581,-6.50474 43.34783,-4.11124 61.68676,7.44229c16.44706,10.36164 26.97317,26.80869 3.28941,51.15033c-47.36751,48.68328 -78.94585,22.368 -78.94585,22.368s-159.2075,74.99856 -185.52278,38.15716s-27.631,-55.2621 -27.631,-55.2621s101.3138,-63.15669 117.10297,-59.20939z"/>
  <path id="svg_19" fill="#d0cde1" d="m327.62531,709.701003s42.10445,27.63105 -7.89459,40.78869s-86.84044,-5.26306 -86.84044,-5.26306s-43.42022,0 -43.42022,-22.368s14.47341,-24.99952 14.47341,-24.99952l44.736,6.57882s53.94632,-14.47339 78.94584,5.26307z"/>
  <path id="svg_20" fill="#2f2e41" d="m244.62111,342.181723c4.03,1.79653 8.02621,3.92291 12.40755,4.4444s9.37055,-1.00819 11.44376,-4.903c1.11982,-2.10373 1.24778,-4.57826 1.3,-6.96089c0.15849,-7.22517 -0.36406,-15.03591 -4.94264,-20.6274c-2.9139,-3.55854 -7.16747,-5.80183 -10.18374,-9.274c-2.161,-2.48761 -3.59924,-5.50284 -5.14786,-8.41141c-5.866,-11.01725 -14.55128,-21.60559 -26.62195,-24.78175c-5.04041,-1.32629 -10.328,-1.26157 -15.53945,-1.188l-30.39725,0.42884c-4.91906,0.0694 -9.914,0.15005 -14.623,1.57383c-9.784,2.95823 -16.90779,11.18591 -23.43216,19.05427c-4.88119,5.88668 -9.7753,11.83425 -13.43862,18.54685a65.07888,65.07888 0 0 0 -7.71423,31.88675a29.83261,29.83261 0 0 0 1.09276,8.43732a46.82177,46.82177 0 0 0 3.31627,7.28423c5.70049,11.19673 9.08523,25.18219 2.66543,35.98258c11.15187,-4.55542 22.18591,-10.52835 29.54232,-20.0677c3.29093,-4.26748 5.87181,-9.26316 10.25758,-12.39472s11.532,-3.40321 14.34592,1.1928a12.85719,12.85719 0 0 1 1.4508,6.02242c0.20551,3.44983 0.1999,7.03258 1.66258,10.16374s4.94686,5.65758 8.27337,4.72061c5.72869,-1.61358 5.18009,-10.406 9.59251,-14.4c3.35094,-3.03318 8.52074,-2.45334 12.82574,-3.83026c5.01582,-1.60428 8.77937,-5.94959 10.92379,-10.75939c1.63,-3.65594 1.60645,-13.223 4.69084,-15.20283c3.86798,-2.48287 12.66429,1.46437 16.24968,3.06271z"/>
  <path id="svg_21" fill="#d0cde1" d="m97.27156,400.176023a15.61579,15.61579 0 0 1 8.128,0.02069c8.44618,2.26753 27.38021,8.27035 31.43989,17.40462c5.26306,11.84188 23.68376,30.26258 23.68376,30.26258s24.99952,24.99952 19.73646,42.10446s-24.99952,36.8414 -24.99952,36.8414s5.26306,81.57738 -21.05223,102.62961s-36.8414,6.57882 -36.8414,26.31528s-81.57734,81.57739 -97.36652,43.42023c0,0 7.89459,-71.05128 5.26306,-96.0508c-2.59358,-24.63898 1.20328,-178.36477 92.0085,-202.94807z"/>
  <path id="svg_22" fill="#d0cde1" d="m139.47102,433.390503s80.26162,59.2094 65.78821,84.20892c0,0 -48.68328,23.68375 -59.20939,22.368s-51.31481,-47.36751 -61.84092,-51.31481s-15.78917,-74.99857 55.2621,-55.26211z"/>
  <circle id="svg_23" fill="#f2f2f2" r="65" cy="237.45791" cx="498.06371"/>
  <path id="svg_24" fill="#3f3d56" d="m1034.92966,153.040613l-364.24868,0l0,-76.21944l364.24868,0l0,76.21944zm-362.64406,-1.60466l361.03944,0l0,-73.0102l-361.03944,0l0,73.0102z"/>
  <rect id="svg_25" fill="#1165eb" height="74.61482" width="362.64407" y="92.06506" x="645.80936"/>
  <circle id="svg_26" fill="#1165eb" r="5.61624" cy="15.24386" cx="416.56486"/>
  <circle id="svg_27" fill="#1165eb" r="5.61624" cy="15.24386" cx="435.8203"/>
  <circle id="svg_28" fill="#1165eb" r="5.61624" cy="15.24386" cx="455.07573"/>
  <path id="svg_29" fill="#3f3d56" d="m1076.06372,439.665823l-675.54493,0l0,-439.66582l675.54493,0l0,439.66582zm-673.94031,-441.27044l672.33569,0l0,3.20924l-672.33569,0l0,-3.20924z"/>
  <rect id="svg_30" fill="#3f3d56" height="1.60462" width="673.9403" y="24.33804" x="401.3211"/>
  <path id="svg_31" fill="#3f3d56" d="m418.16961,19.255443a6.41848,6.41848 0 1 1 6.41848,-6.41848a6.42592,6.42592 0 0 1 -6.41848,6.41848zm0,-11.23234a4.81386,4.81386 0 1 0 4.81386,4.81386a4.81945,4.81945 0 0 0 -4.81386,-4.81386z"/>
  <path id="svg_32" fill="#3f3d56" d="m437.42505,19.255443a6.41848,6.41848 0 1 1 6.41848,-6.41848a6.42592,6.42592 0 0 1 -6.41848,6.41848zm0,-11.23234a4.81386,4.81386 0 1 0 4.81386,4.81386a4.81945,4.81945 0 0 0 -4.81386,-4.81386z"/>
  <path id="svg_33" fill="#3f3d56" d="m456.68049,19.255443a6.41848,6.41848 0 1 1 6.41847,-6.41849a6.42593,6.42593 0 0 1 -6.41847,6.41849zm0,-11.23234a4.81386,4.81386 0 1 0 4.81385,4.81386a4.81946,4.81946 0 0 0 -4.81385,-4.81386z"/>
  <rect id="svg_34" fill="#3f3d56" height="414.34565" width="1.60462" y="25.14035" x="612.10922"/>
  <rect id="svg_35" fill="#f2f2f2" height="16.0462" width="117.93955" y="228.85889" x="688.73293"/>
  <rect id="svg_36" fill="#f2f2f2" height="16.0462" width="117.93955" y="228.85889" x="874.06652"/>
  <path id="svg_37" fill="#3f3d56" d="m813.89329,237.684303l-119.54417,0l0,-17.65082l119.54417,0l0,17.65082zm-117.93955,-19.25544l116.33493,0l0,3.20924l-116.33493,0l0,-3.20924z"/>
  <rect id="svg_38" fill="#f2f2f2" height="16.0462" width="117.93955" y="353.21693" x="688.73293"/>
  <path id="svg_39" fill="#3f3d56" d="m813.89329,362.042333l-119.54417,0l0,-17.65081l119.54417,0l0,17.65081zm-117.93955,-19.25543l116.33493,0l0,3.20924l-116.33493,0l0,-3.20924z"/>
  <rect id="svg_40" fill="#f2f2f2" height="16.0462" width="303.27314" y="289.43329" x="689.13409"/>
  <path id="svg_41" fill="#3f3d56" d="m999.62803,299.863323l-304.87776,0l0,-17.65082l304.87776,0l0,17.65082zm-303.27317,-1.60462l301.66852,0l0,-14.44158l-301.66852,0l0,14.44158z"/>
  <path id="svg_42" fill="#3f3d56" d="m999.22686,237.684303l-119.54416,0l0,-17.65082l119.54416,0l0,17.65082zm-117.93955,-19.25544l116.33493,0l0,3.20924l-116.33492,0l-0.00001,-3.20924z"/>
  <path id="svg_43" fill="#3f3d56" d="m509.06372,285.457953a66,66 0 1 1 66,-66a66.07468,66.07468 0 0 1 -66,66zm0,-130a64,64 0 1 0 64,64a64.0727,64.0727 0 0 0 -64,-64z"/>
  <rect id="svg_44" fill="#3f3d56" height="2" width="283" y="744.45791" x="748.06371"/>
 </g>
</svg>